<mxfile host="www.draw.io" modified="2019-11-18T09:52:09.312Z" agent="Mozilla/5.0 (Macintosh; Intel Mac OS X 10_15_1) AppleWebKit/537.36 (KHTML, like Gecko) Chrome/78.0.3904.97 Safari/537.36" etag="RxsrwGOwP1IPjVN3TQib" version="12.2.6" type="github" pages="1">
  <diagram id="8mvPLZoNpZ5Y-GIBwJK8" name="Page-1">
    <mxGraphModel dx="1412" dy="780" grid="1" gridSize="10" guides="1" tooltips="1" connect="1" arrows="1" fold="1" page="1" pageScale="1" pageWidth="827" pageHeight="1169" math="0" shadow="0">
      <root>
        <mxCell id="0"/>
        <mxCell id="1" parent="0"/>
        <mxCell id="H5b-eDL3CfRdgLxYvMOx-8" value="" style="rounded=0;whiteSpace=wrap;html=1;fillColor=#dae8fc;strokeColor=#6c8ebf;" vertex="1" parent="1">
          <mxGeometry x="400" y="240" width="440" height="120" as="geometry"/>
        </mxCell>
        <mxCell id="H5b-eDL3CfRdgLxYvMOx-6" value="" style="rounded=0;whiteSpace=wrap;html=1;fillColor=#e1d5e7;strokeColor=#9673a6;" vertex="1" parent="1">
          <mxGeometry x="400" y="40" width="440" height="120" as="geometry"/>
        </mxCell>
        <mxCell id="H5b-eDL3CfRdgLxYvMOx-1" value="assets-store-profile&lt;br&gt;小二门店圈选" style="rounded=0;whiteSpace=wrap;html=1;" vertex="1" parent="1">
          <mxGeometry x="420" y="80" width="120" height="60" as="geometry"/>
        </mxCell>
        <mxCell id="H5b-eDL3CfRdgLxYvMOx-2" value="assets-merchant-profile&lt;br&gt;商家门店圈选" style="rounded=0;whiteSpace=wrap;html=1;" vertex="1" parent="1">
          <mxGeometry x="560" y="80" width="120" height="60" as="geometry"/>
        </mxCell>
        <mxCell id="H5b-eDL3CfRdgLxYvMOx-4" value="assets-partner-profile&lt;br&gt;小二拍档圈选" style="rounded=0;whiteSpace=wrap;html=1;" vertex="1" parent="1">
          <mxGeometry x="700" y="80" width="120" height="60" as="geometry"/>
        </mxCell>
        <mxCell id="H5b-eDL3CfRdgLxYvMOx-7" value="圈选前台系统&amp;nbsp;" style="text;html=1;strokeColor=none;fillColor=none;align=left;verticalAlign=middle;whiteSpace=wrap;rounded=0;" vertex="1" parent="1">
          <mxGeometry x="410" y="50" width="120" height="20" as="geometry"/>
        </mxCell>
        <mxCell id="H5b-eDL3CfRdgLxYvMOx-9" value="圈选服务系统" style="text;html=1;strokeColor=none;fillColor=none;align=left;verticalAlign=middle;whiteSpace=wrap;rounded=0;" vertex="1" parent="1">
          <mxGeometry x="410" y="250" width="120" height="20" as="geometry"/>
        </mxCell>
        <mxCell id="H5b-eDL3CfRdgLxYvMOx-11" value="" style="rounded=0;whiteSpace=wrap;html=1;fillColor=#d5e8d4;strokeColor=#82b366;" vertex="1" parent="1">
          <mxGeometry x="920" y="240" width="160" height="120" as="geometry"/>
        </mxCell>
        <mxCell id="H5b-eDL3CfRdgLxYvMOx-12" value="圈选管理系统 (LIFE)" style="text;html=1;strokeColor=none;fillColor=none;align=left;verticalAlign=middle;whiteSpace=wrap;rounded=0;" vertex="1" parent="1">
          <mxGeometry x="930" y="250" width="130" height="20" as="geometry"/>
        </mxCell>
        <mxCell id="H5b-eDL3CfRdgLxYvMOx-13" value="lstfe-life&lt;br&gt;圈选管理系统" style="rounded=0;whiteSpace=wrap;html=1;" vertex="1" parent="1">
          <mxGeometry x="940" y="280" width="120" height="60" as="geometry"/>
        </mxCell>
        <mxCell id="H5b-eDL3CfRdgLxYvMOx-14" value="" style="shape=flexArrow;endArrow=classic;startArrow=classic;html=1;entryX=0.5;entryY=1;entryDx=0;entryDy=0;fillColor=#f5f5f5;strokeColor=#666666;" edge="1" parent="1" source="H5b-eDL3CfRdgLxYvMOx-8" target="H5b-eDL3CfRdgLxYvMOx-6">
          <mxGeometry width="50" height="50" relative="1" as="geometry">
            <mxPoint x="400" y="430" as="sourcePoint"/>
            <mxPoint x="450" y="380" as="targetPoint"/>
          </mxGeometry>
        </mxCell>
        <mxCell id="H5b-eDL3CfRdgLxYvMOx-15" value="" style="shape=flexArrow;endArrow=classic;startArrow=classic;html=1;entryX=0;entryY=0.5;entryDx=0;entryDy=0;exitX=1;exitY=0.5;exitDx=0;exitDy=0;fillColor=#f5f5f5;strokeColor=#666666;" edge="1" parent="1" source="H5b-eDL3CfRdgLxYvMOx-8" target="H5b-eDL3CfRdgLxYvMOx-11">
          <mxGeometry width="50" height="50" relative="1" as="geometry">
            <mxPoint x="400" y="430" as="sourcePoint"/>
            <mxPoint x="450" y="380" as="targetPoint"/>
          </mxGeometry>
        </mxCell>
        <mxCell id="H5b-eDL3CfRdgLxYvMOx-16" value="lst-shield&lt;br&gt;圈选底层服务" style="rounded=0;whiteSpace=wrap;html=1;align=center;" vertex="1" parent="1">
          <mxGeometry x="420" y="280" width="120" height="60" as="geometry"/>
        </mxCell>
        <mxCell id="H5b-eDL3CfRdgLxYvMOx-17" value="leadfoot&lt;br&gt;圈选UI服务" style="rounded=0;whiteSpace=wrap;html=1;align=center;" vertex="1" parent="1">
          <mxGeometry x="560" y="280" width="120" height="60" as="geometry"/>
        </mxCell>
        <mxCell id="H5b-eDL3CfRdgLxYvMOx-18" value="" style="rounded=0;whiteSpace=wrap;html=1;align=left;fillColor=#f8cecc;strokeColor=#b85450;" vertex="1" parent="1">
          <mxGeometry x="20" y="240" width="300" height="120" as="geometry"/>
        </mxCell>
        <mxCell id="H5b-eDL3CfRdgLxYvMOx-19" value="业务系统" style="text;html=1;strokeColor=none;fillColor=none;align=left;verticalAlign=middle;whiteSpace=wrap;rounded=0;" vertex="1" parent="1">
          <mxGeometry x="30" y="250" width="120" height="20" as="geometry"/>
        </mxCell>
        <mxCell id="H5b-eDL3CfRdgLxYvMOx-20" value="" style="shape=flexArrow;endArrow=classic;startArrow=classic;html=1;entryX=0;entryY=0.5;entryDx=0;entryDy=0;exitX=1;exitY=0.5;exitDx=0;exitDy=0;fillColor=#f5f5f5;strokeColor=#666666;" edge="1" parent="1">
          <mxGeometry width="50" height="50" relative="1" as="geometry">
            <mxPoint x="320" y="300" as="sourcePoint"/>
            <mxPoint x="400" y="300" as="targetPoint"/>
          </mxGeometry>
        </mxCell>
        <mxCell id="H5b-eDL3CfRdgLxYvMOx-21" value="营销应用" style="rounded=0;whiteSpace=wrap;html=1;align=center;" vertex="1" parent="1">
          <mxGeometry x="40" y="280" width="120" height="60" as="geometry"/>
        </mxCell>
        <mxCell id="H5b-eDL3CfRdgLxYvMOx-22" value="其他业务引用..." style="rounded=0;whiteSpace=wrap;html=1;align=center;" vertex="1" parent="1">
          <mxGeometry x="180" y="280" width="120" height="60" as="geometry"/>
        </mxCell>
        <mxCell id="H5b-eDL3CfRdgLxYvMOx-23" value="" style="rounded=0;whiteSpace=wrap;html=1;fillColor=#ffe6cc;strokeColor=#d79b00;" vertex="1" parent="1">
          <mxGeometry x="20" y="40" width="300" height="120" as="geometry"/>
        </mxCell>
        <mxCell id="H5b-eDL3CfRdgLxYvMOx-24" value="" style="shape=flexArrow;endArrow=classic;startArrow=classic;html=1;entryX=0.5;entryY=1;entryDx=0;entryDy=0;fillColor=#f5f5f5;strokeColor=#666666;" edge="1" parent="1">
          <mxGeometry width="50" height="50" relative="1" as="geometry">
            <mxPoint x="170" y="240" as="sourcePoint"/>
            <mxPoint x="170" y="160" as="targetPoint"/>
          </mxGeometry>
        </mxCell>
        <mxCell id="H5b-eDL3CfRdgLxYvMOx-25" value="业务前台系统&amp;nbsp;" style="text;html=1;strokeColor=none;fillColor=none;align=left;verticalAlign=middle;whiteSpace=wrap;rounded=0;" vertex="1" parent="1">
          <mxGeometry x="30" y="50" width="120" height="20" as="geometry"/>
        </mxCell>
      </root>
    </mxGraphModel>
  </diagram>
</mxfile>
